<svg width="162" height="37" viewBox="0 0 162 37" fill="none" xmlns="http://www.w3.org/2000/svg">
<rect y="1" width="9" height="36" fill="url(#paint0_linear_97_136)"/>
<rect x="36" y="37" width="9" height="36" transform="rotate(180 36 37)" fill="url(#paint1_linear_97_136)"/>
<rect x="9" y="14.6802" width="18" height="9" fill="url(#paint2_linear_97_136)"/>
<path d="M49.1378 14V0.909091H51.9055V6.31037H57.5241V0.909091H60.2855V14H57.5241V8.59233H51.9055V14H49.1378ZM62.5675 14V0.909091H71.3885V3.19105H65.3352V6.31037H70.9347V8.59233H65.3352V11.718H71.4141V14H62.5675ZM73.589 14V0.909091H78.7537C79.7424 0.909091 80.5861 1.08594 81.285 1.43963C81.9881 1.78906 82.5229 2.28551 82.8894 2.92898C83.2601 3.56818 83.4455 4.32031 83.4455 5.18537C83.4455 6.05469 83.258 6.80256 82.883 7.42898C82.508 8.05114 81.9647 8.52841 81.253 8.8608C80.5456 9.19318 79.6891 9.35938 78.6834 9.35938H75.2253V7.13494H78.236C78.7644 7.13494 79.2033 7.0625 79.5527 6.91761C79.9022 6.77273 80.1621 6.5554 80.3326 6.26562C80.5073 5.97585 80.5946 5.61577 80.5946 5.18537C80.5946 4.75071 80.5073 4.38423 80.3326 4.08594C80.1621 3.78764 79.9 3.56179 79.5463 3.40838C79.1969 3.25071 78.7559 3.17188 78.2232 3.17188H76.3567V14H73.589ZM80.6586 8.04261L83.9121 14H80.8567L77.6735 8.04261H80.6586ZM97.4313 7.45455C97.4313 8.8821 97.1607 10.0966 96.6195 11.098C96.0826 12.0994 95.3496 12.8643 94.4206 13.3928C93.4959 13.9169 92.4561 14.179 91.3013 14.179C90.138 14.179 89.0939 13.9148 88.1692 13.3864C87.2445 12.858 86.5137 12.093 85.9767 11.0916C85.4398 10.0902 85.1713 8.87784 85.1713 7.45455C85.1713 6.02699 85.4398 4.8125 85.9767 3.81108C86.5137 2.80966 87.2445 2.04687 88.1692 1.52273C89.0939 0.994318 90.138 0.730113 91.3013 0.730113C92.4561 0.730113 93.4959 0.994318 94.4206 1.52273C95.3496 2.04687 96.0826 2.80966 96.6195 3.81108C97.1607 4.8125 97.4313 6.02699 97.4313 7.45455ZM94.6252 7.45455C94.6252 6.52983 94.4867 5.75 94.2097 5.11506C93.937 4.48011 93.5513 3.99858 93.0527 3.67045C92.5542 3.34233 91.9703 3.17827 91.3013 3.17827C90.6323 3.17827 90.0485 3.34233 89.5499 3.67045C89.0513 3.99858 88.6635 4.48011 88.3865 5.11506C88.1138 5.75 87.9775 6.52983 87.9775 7.45455C87.9775 8.37926 88.1138 9.15909 88.3865 9.79403C88.6635 10.429 89.0513 10.9105 89.5499 11.2386C90.0485 11.5668 90.6323 11.7308 91.3013 11.7308C91.9703 11.7308 92.5542 11.5668 93.0527 11.2386C93.5513 10.9105 93.937 10.429 94.2097 9.79403C94.4867 9.15909 94.6252 8.37926 94.6252 7.45455ZM56.2393 26.674C56.1882 26.1584 55.9688 25.7578 55.581 25.4723C55.1932 25.1868 54.6669 25.044 54.0021 25.044C53.5504 25.044 53.169 25.108 52.858 25.2358C52.5469 25.3594 52.3082 25.532 52.142 25.7536C51.9801 25.9751 51.8991 26.2266 51.8991 26.5078C51.8906 26.7422 51.9396 26.9467 52.0462 27.1214C52.157 27.2962 52.3082 27.4474 52.5 27.5753C52.6918 27.6989 52.9134 27.8075 53.1648 27.9013C53.4162 27.9908 53.6847 28.0675 53.9702 28.1314L55.1463 28.4126C55.7173 28.5405 56.2415 28.7109 56.7188 28.924C57.196 29.1371 57.6094 29.3991 57.9588 29.7102C58.3082 30.0213 58.5788 30.3878 58.7706 30.8097C58.9666 31.2315 59.0668 31.7152 59.071 32.2607C59.0668 33.0618 58.8622 33.7564 58.4574 34.3445C58.0568 34.9283 57.4773 35.3821 56.7188 35.706C55.9645 36.0256 55.0547 36.1854 53.9893 36.1854C52.9325 36.1854 52.0121 36.0234 51.228 35.6996C50.4482 35.3757 49.8388 34.8963 49.3999 34.2614C48.9652 33.6222 48.7372 32.8317 48.7159 31.8899H51.3942C51.424 32.3288 51.5497 32.6953 51.7713 32.9893C51.9972 33.2791 52.2976 33.4986 52.6726 33.6477C53.0518 33.7926 53.4801 33.8651 53.9574 33.8651C54.4261 33.8651 54.8331 33.7969 55.1783 33.6605C55.5277 33.5241 55.7983 33.3345 55.9901 33.0916C56.1818 32.8487 56.2777 32.5696 56.2777 32.2543C56.2777 31.9602 56.1903 31.7131 56.0156 31.5128C55.8452 31.3125 55.5938 31.142 55.2614 31.0014C54.9332 30.8608 54.5305 30.733 54.0533 30.6179L52.6278 30.2599C51.5241 29.9915 50.6527 29.5717 50.0135 29.0007C49.3743 28.4297 49.0568 27.6605 49.0611 26.6932C49.0568 25.9006 49.2678 25.2081 49.6939 24.6158C50.1243 24.0234 50.7145 23.5611 51.4645 23.2287C52.2145 22.8963 53.0668 22.7301 54.0213 22.7301C54.9929 22.7301 55.8409 22.8963 56.5653 23.2287C57.294 23.5611 57.8608 24.0234 58.2656 24.6158C58.6705 25.2081 58.8793 25.8942 58.892 26.674H56.2393ZM72.9625 29.4545C72.9625 30.8821 72.6919 32.0966 72.1507 33.098C71.6138 34.0994 70.8809 34.8643 69.9519 35.3928C69.0272 35.9169 67.9874 36.179 66.8326 36.179C65.6692 36.179 64.6252 35.9148 63.7005 35.3864C62.7757 34.858 62.0449 34.093 61.508 33.0916C60.9711 32.0902 60.7026 30.8778 60.7026 29.4545C60.7026 28.027 60.9711 26.8125 61.508 25.8111C62.0449 24.8097 62.7757 24.0469 63.7005 23.5227C64.6252 22.9943 65.6692 22.7301 66.8326 22.7301C67.9874 22.7301 69.0272 22.9943 69.9519 23.5227C70.8809 24.0469 71.6138 24.8097 72.1507 25.8111C72.6919 26.8125 72.9625 28.027 72.9625 29.4545ZM70.1564 29.4545C70.1564 28.5298 70.0179 27.75 69.7409 27.1151C69.4682 26.4801 69.0826 25.9986 68.584 25.6705C68.0854 25.3423 67.5016 25.1783 66.8326 25.1783C66.1635 25.1783 65.5797 25.3423 65.0811 25.6705C64.5826 25.9986 64.1948 26.4801 63.9178 27.1151C63.6451 27.75 63.5087 28.5298 63.5087 29.4545C63.5087 30.3793 63.6451 31.1591 63.9178 31.794C64.1948 32.429 64.5826 32.9105 65.0811 33.2386C65.5797 33.5668 66.1635 33.7308 66.8326 33.7308C67.5016 33.7308 68.0854 33.5668 68.584 33.2386C69.0826 32.9105 69.4682 32.429 69.7409 31.794C70.0179 31.1591 70.1564 30.3793 70.1564 29.4545ZM75.0128 36V22.9091H83.6804V25.1911H77.7805V28.3104H83.1051V30.5923H77.7805V36H75.0128ZM85.0435 25.1911V22.9091H95.7949V25.1911H91.7871V36H89.0513V25.1911H85.0435ZM100.512 36L96.7665 22.9091H99.79L101.957 32.005H102.066L104.456 22.9091H107.045L109.429 32.0241H109.544L111.711 22.9091H114.735L110.989 36H108.291L105.798 27.4411H105.696L103.21 36H100.512ZM117.154 36H114.188L118.707 22.9091H122.274L126.787 36H123.821L120.542 25.9006H120.439L117.154 36ZM116.969 30.8544H123.974V33.0149H116.969V30.8544ZM128.362 36V22.9091H133.527C134.516 22.9091 135.36 23.0859 136.058 23.4396C136.762 23.7891 137.296 24.2855 137.663 24.929C138.034 25.5682 138.219 26.3203 138.219 27.1854C138.219 28.0547 138.031 28.8026 137.656 29.429C137.281 30.0511 136.738 30.5284 136.026 30.8608C135.319 31.1932 134.463 31.3594 133.457 31.3594H129.999V29.1349H133.009C133.538 29.1349 133.977 29.0625 134.326 28.9176C134.676 28.7727 134.936 28.5554 135.106 28.2656C135.281 27.9759 135.368 27.6158 135.368 27.1854C135.368 26.7507 135.281 26.3842 135.106 26.0859C134.936 25.7876 134.673 25.5618 134.32 25.4084C133.97 25.2507 133.529 25.1719 132.997 25.1719H131.13V36H128.362ZM135.432 30.0426L138.686 36H135.63L132.447 30.0426H135.432ZM140.175 36V22.9091H148.996V25.1911H142.943V28.3104H148.542V30.5923H142.943V33.718H149.021V36H140.175ZM158.298 26.674C158.247 26.1584 158.027 25.7578 157.64 25.4723C157.252 25.1868 156.725 25.044 156.061 25.044C155.609 25.044 155.228 25.108 154.917 25.2358C154.605 25.3594 154.367 25.532 154.201 25.7536C154.039 25.9751 153.958 26.2266 153.958 26.5078C153.949 26.7422 153.998 26.9467 154.105 27.1214C154.216 27.2962 154.367 27.4474 154.559 27.5753C154.75 27.6989 154.972 27.8075 155.223 27.9013C155.475 27.9908 155.743 28.0675 156.029 28.1314L157.205 28.4126C157.776 28.5405 158.3 28.7109 158.777 28.924C159.255 29.1371 159.668 29.3991 160.017 29.7102C160.367 30.0213 160.637 30.3878 160.829 30.8097C161.025 31.2315 161.125 31.7152 161.13 32.2607C161.125 33.0618 160.921 33.7564 160.516 34.3445C160.115 34.9283 159.536 35.3821 158.777 35.706C158.023 36.0256 157.113 36.1854 156.048 36.1854C154.991 36.1854 154.071 36.0234 153.287 35.6996C152.507 35.3757 151.897 34.8963 151.458 34.2614C151.024 33.6222 150.796 32.8317 150.775 31.8899H153.453C153.483 32.3288 153.608 32.6953 153.83 32.9893C154.056 33.2791 154.356 33.4986 154.731 33.6477C155.11 33.7926 155.539 33.8651 156.016 33.8651C156.485 33.8651 156.892 33.7969 157.237 33.6605C157.586 33.5241 157.857 33.3345 158.049 33.0916C158.24 32.8487 158.336 32.5696 158.336 32.2543C158.336 31.9602 158.249 31.7131 158.074 31.5128C157.904 31.3125 157.652 31.142 157.32 31.0014C156.992 30.8608 156.589 30.733 156.112 30.6179L154.686 30.2599C153.583 29.9915 152.711 29.5717 152.072 29.0007C151.433 28.4297 151.115 27.6605 151.12 26.6932C151.115 25.9006 151.326 25.2081 151.752 24.6158C152.183 24.0234 152.773 23.5611 153.523 23.2287C154.273 22.8963 155.125 22.7301 156.08 22.7301C157.051 22.7301 157.9 22.8963 158.624 23.2287C159.353 23.5611 159.919 24.0234 160.324 24.6158C160.729 25.2081 160.938 25.8942 160.951 26.674H158.298Z" fill="#1D4ED8"/>
<defs>
<linearGradient id="paint0_linear_97_136" x1="4.2346" y1="1" x2="4.7654" y2="37" gradientUnits="userSpaceOnUse">
<stop stop-color="#00FFFF"/>
<stop offset="1" stop-color="#FF00FF"/>
</linearGradient>
<linearGradient id="paint1_linear_97_136" x1="40.5605" y1="73" x2="40.4395" y2="37" gradientUnits="userSpaceOnUse">
<stop stop-color="#00FFFF"/>
<stop offset="1" stop-color="#FF00FF"/>
</linearGradient>
<linearGradient id="paint2_linear_97_136" x1="17.9858" y1="23.6802" x2="18.0142" y2="14.6802" gradientUnits="userSpaceOnUse">
<stop stop-color="#FF00FF"/>
<stop offset="1" stop-color="#00FFFF"/>
</linearGradient>
</defs>
</svg>
