<?xml version="1.0" encoding="iso-8859-1"?>
<!-- Generator: Adobe Illustrator 24.1.0, SVG Export Plug-In . SVG Version: 6.00 Build 0)  -->
<svg version="1.1" id="Layer_2" xmlns="http://www.w3.org/2000/svg" xmlns:xlink="http://www.w3.org/1999/xlink" x="0px" y="0px"
	 viewBox="0 0 48 48" style="enable-background:new 0 0 48 48;" xml:space="preserve">
<linearGradient id="SVGID_1_" gradientUnits="userSpaceOnUse" x1="12.0659" y1="0.0659" x2="34.8909" y2="22.8909">
	<stop  offset="0.2375" style="stop-color:#3BC9F3"/>
	<stop  offset="0.8503" style="stop-color:#1591D8"/>
</linearGradient>
<path style="fill:url(#SVGID_1_);" d="M43,15H5c-1.1,0-2-0.9-2-2v-2c0-1.1,0.9-2,2-2h38c1.1,0,2,0.9,2,2v2C45,14.1,44.1,15,43,15z"
	/>
<linearGradient id="SVGID_2_" gradientUnits="userSpaceOnUse" x1="12.0659" y1="12.0659" x2="34.8909" y2="34.8909">
	<stop  offset="0.2375" style="stop-color:#3BC9F3"/>
	<stop  offset="0.8503" style="stop-color:#1591D8"/>
</linearGradient>
<path style="fill:url(#SVGID_2_);" d="M43,27H5c-1.1,0-2-0.9-2-2v-2c0-1.1,0.9-2,2-2h38c1.1,0,2,0.9,2,2v2C45,26.1,44.1,27,43,27z"
	/>
<linearGradient id="SVGID_3_" gradientUnits="userSpaceOnUse" x1="12.0659" y1="24.0659" x2="34.8909" y2="46.8909">
	<stop  offset="0.2375" style="stop-color:#3BC9F3"/>
	<stop  offset="0.8503" style="stop-color:#1591D8"/>
</linearGradient>
<path style="fill:url(#SVGID_3_);" d="M43,39H5c-1.1,0-2-0.9-2-2v-2c0-1.1,0.9-2,2-2h38c1.1,0,2,0.9,2,2v2C45,38.1,44.1,39,43,39z"
	/>
</svg>